<svg width="48" height="48" viewBox="0 0 48 48" fill="none" xmlns="http://www.w3.org/2000/svg">
<g clip-path="url(#clip0_160_1177)">
<path d="M15.8657 36.7031H6.72806V25.4062H0V48H22.5938V25.4062H15.8657V36.7031Z" fill="white"/>
<path d="M9.54053 25.4062H13.0532V33.8906H9.54053V25.4062ZM41.2719 36.7031H32.1343V25.4062H25.4062V48H48V25.4062H41.2719V36.7031Z" fill="white"/>
<path d="M34.9468 25.4062H38.4595V33.8906H34.9468V25.4062ZM41.2719 0V11.2969H32.1343V0H25.4062V22.5938H48V0H41.2719Z" fill="white"/>
<path d="M34.9468 0H38.4595V8.48438H34.9468V0ZM9.92725 11.8793V0.0874688C4.35934 0.781875 0.0366211 5.54391 0.0366211 11.2969C0.0366211 17.526 5.10437 22.5938 11.3335 22.5938C13.9423 22.5938 16.3471 21.7044 18.2615 20.2136L9.92725 11.8793Z" fill="white"/>
<path d="M14.7285 12.7031L20.2502 18.2248C21.469 16.6598 22.2855 14.7671 22.5429 12.7031H14.7285ZM12.7397 9.89056H22.543C21.906 4.78353 17.8468 0.72434 12.7397 0.0874023V9.89056Z" fill="white"/>
</g>
<defs>
<clipPath id="clip0_160_1177">
<rect width="48" height="48" fill="white"/>
</clipPath>
</defs>
</svg>
