<svg width="37" height="60" viewBox="0 0 37 60" fill="none" xmlns="http://www.w3.org/2000/svg">
<path d="M0 41.8348C0 51.8672 8.1328 60 18.1652 60C28.1975 60 36.3303 51.8672 36.3303 41.8348C36.3303 31.8025 28.1975 23.6697 18.1652 23.6697C8.1328 23.6697 0 31.8025 0 41.8348ZM16.4076 33.221V30.9356H19.9229V33.2288C22.3974 33.6364 24.2912 35.7894 24.2912 38.3775H20.7759C20.7759 37.4379 20.0115 36.6735 19.0719 36.6735H17.2151C16.2767 36.6735 15.5132 37.4371 15.5132 38.3754C15.5132 39.3139 16.2767 40.0773 17.2151 40.0773H19.1153C21.9922 40.0773 24.3325 42.4177 24.3325 45.2944C24.3325 47.8965 22.4175 50.0596 19.9228 50.4489V52.7343H16.4075V50.4535C13.9303 50.0791 12.0253 47.9358 12.0253 45.3557H15.5406C15.5406 46.2603 16.2766 46.9963 17.1812 46.9963H19.1153C20.0537 46.9963 20.8172 46.2327 20.8172 45.2944C20.8172 44.356 20.0537 43.5925 19.1153 43.5925H17.2151C14.3383 43.5925 11.9979 41.2521 11.9979 38.3753C11.9979 35.7734 13.9129 33.6104 16.4076 33.221ZM21.7024 20.4424C23.3871 20.7185 25.033 21.1942 26.6052 21.8596C28.667 22.7303 30.5808 23.9167 32.2776 25.3761V12.0062H35.8076V8.81747L26.99 0L18.1724 8.81758V12.0063H21.7024V20.4424ZM4.05257 25.3761C5.74945 23.9167 7.66317 22.7303 9.725 21.8596C11.2972 21.1942 12.9431 20.7184 14.6278 20.4424V17.6301H18.1578V14.4414L9.34019 5.6238L0.52261 14.4414V17.6301H4.05257V25.3761Z" fill="white"/>
</svg>
