<svg width="53" height="38" viewBox="0 0 53 38" fill="none" xmlns="http://www.w3.org/2000/svg">
<path d="M52.3312 18L48.1875 8.625C48.0424 8.29252 47.804 8.00928 47.5011 7.80959C47.1983 7.60991 46.844 7.50237 46.4813 7.5H36.45L37.05 2.08125C37.0795 1.8182 37.053 1.55188 36.9722 1.29981C36.8914 1.04773 36.7582 0.815625 36.5812 0.61875C36.4059 0.424514 36.1919 0.269117 35.953 0.162553C35.714 0.0559898 35.4554 0.00061843 35.1937 0H9.375C8.87772 0 8.40081 0.197544 8.04917 0.549175C7.69754 0.900806 7.5 1.37772 7.5 1.875C7.5 2.37228 7.69754 2.84919 8.04917 3.20082C8.40081 3.55246 8.87772 3.75 9.375 3.75H18.75C19.2473 3.75 19.7242 3.94754 20.0758 4.29917C20.4275 4.65081 20.625 5.12772 20.625 5.625C20.625 6.12228 20.4275 6.59919 20.0758 6.95082C19.7242 7.30245 19.2473 7.5 18.75 7.5H5.625C5.12772 7.5 4.65081 7.69754 4.29918 8.04917C3.94754 8.40081 3.75 8.87772 3.75 9.375C3.75 9.87228 3.94754 10.3492 4.29918 10.7008C4.65081 11.0525 5.12772 11.25 5.625 11.25H24.375C24.8723 11.25 25.3492 11.4475 25.7008 11.7992C26.0525 12.1508 26.25 12.6277 26.25 13.125C26.25 13.6223 26.0525 14.0992 25.7008 14.4508C25.3492 14.8025 24.8723 15 24.375 15H11.25C10.7527 15 10.2758 15.1975 9.92417 15.5492C9.57254 15.9008 9.375 16.3777 9.375 16.875C9.375 17.3723 9.57254 17.8492 9.92417 18.2008C10.2758 18.5525 10.7527 18.75 11.25 18.75H18.75C19.2473 18.75 19.7242 18.9475 20.0758 19.2992C20.4275 19.6508 20.625 20.1277 20.625 20.625C20.625 21.1223 20.4275 21.5992 20.0758 21.9508C19.7242 22.3025 19.2473 22.5 18.75 22.5H3.75C3.25272 22.5 2.77581 22.6975 2.42417 23.0492C2.07254 23.4008 1.875 23.8777 1.875 24.375C1.875 24.8723 2.07254 25.3492 2.42417 25.7008C2.77581 26.0525 3.25272 26.25 3.75 26.25H7.5C7.99728 26.25 8.47419 26.4475 8.82582 26.7992C9.17745 27.1508 9.375 27.6277 9.375 28.125C9.375 28.6223 9.17745 29.0992 8.82582 29.4508C8.47419 29.8025 7.99728 30 7.5 30H5.625C5.12772 30 4.65081 30.1975 4.29918 30.5492C3.94754 30.9008 3.75 31.3777 3.75 31.875C3.75 32.3723 3.94754 32.8492 4.29918 33.2008C4.65081 33.5525 5.12772 33.75 5.625 33.75H10.9687C11.1712 34.5408 11.5566 35.2729 12.0937 35.8875C12.549 36.3965 13.1068 36.8033 13.7305 37.0812C14.3542 37.3591 15.0297 37.5018 15.7125 37.5C16.868 37.467 17.988 37.0935 18.9319 36.4263C19.8759 35.7592 20.6019 34.8282 21.0187 33.75H35.3438C35.5462 34.5408 35.9316 35.2729 36.4688 35.8875C36.924 36.3965 37.4818 36.8033 38.1055 37.0812C38.7292 37.3591 39.4047 37.5018 40.0875 37.5C41.243 37.467 42.3629 37.0935 43.3069 36.4263C44.2509 35.7592 44.9769 34.8282 45.3937 33.75H49.1437C49.6073 33.7528 50.0554 33.5838 50.4017 33.2757C50.7479 32.9675 50.9678 32.542 51.0187 32.0812L52.4625 18.9562C52.5139 18.6315 52.4682 18.2989 52.3312 18ZM15.7125 33.75C15.557 33.7567 15.402 33.7282 15.2592 33.6665C15.1163 33.6048 14.9892 33.5115 14.8875 33.3937C14.7403 33.2117 14.6326 33.0009 14.5713 32.775C14.51 32.549 14.4963 32.3128 14.5312 32.0812C14.5791 31.5548 14.8064 31.0608 15.1751 30.6819C15.5437 30.303 16.0313 30.0623 16.5562 30C16.7117 29.9933 16.8667 30.0218 17.0096 30.0835C17.1525 30.1452 17.2795 30.2385 17.3812 30.3562C17.5284 30.5383 17.6361 30.7491 17.6974 30.975C17.7588 31.201 17.7724 31.4372 17.7375 31.6687C17.6896 32.1952 17.4623 32.6892 17.0937 33.0681C16.725 33.447 16.2374 33.6877 15.7125 33.75ZM40.0875 33.75C39.932 33.7567 39.777 33.7282 39.6342 33.6665C39.4913 33.6048 39.3642 33.5115 39.2625 33.3937C39.1153 33.2117 39.0076 33.0009 38.9463 32.775C38.885 32.549 38.8713 32.3128 38.9062 32.0812C38.9541 31.5548 39.1814 31.0608 39.5501 30.6819C39.9187 30.303 40.4063 30.0623 40.9312 30C41.0867 29.9933 41.2417 30.0218 41.3846 30.0835C41.5275 30.1452 41.6545 30.2385 41.7562 30.3562C41.9034 30.5383 42.0111 30.7491 42.0724 30.975C42.1338 31.201 42.1474 31.4372 42.1125 31.6687C42.0646 32.1952 41.8373 32.6892 41.4687 33.0681C41.1 33.447 40.6124 33.6877 40.0875 33.75ZM48.525 20.625H40.2375C39.9759 20.6244 39.7172 20.569 39.4783 20.4624C39.2393 20.3559 39.0253 20.2005 38.85 20.0062C38.6731 19.8094 38.5398 19.5773 38.459 19.3252C38.3782 19.0731 38.3517 18.8068 38.3812 18.5437L39 12.9187C39.0553 12.4614 39.277 12.0404 39.6228 11.7361C39.9686 11.4318 40.4143 11.2654 40.875 11.2687H45.2437L48.75 19.05L48.525 20.625Z" fill="white"/>
<path d="M3.75 18.75C4.24728 18.75 4.72419 18.5525 5.07582 18.2008C5.42746 17.8492 5.625 17.3723 5.625 16.875C5.625 16.3777 5.42746 15.9008 5.07582 15.5492C4.72419 15.1975 4.24728 15 3.75 15H1.875C1.37772 15 0.900805 15.1975 0.549175 15.5492C0.197544 15.9008 0 16.3777 0 16.875C0 17.3723 0.197544 17.8492 0.549175 18.2008C0.900805 18.5525 1.37772 18.75 1.875 18.75H3.75Z" fill="white"/>
</svg>
